<?xml version="1.0" encoding="UTF-8" standalone="no"?>
<!-- Created with Inkscape (http://www.inkscape.org/) -->

<svg
   xmlns:dc="http://purl.org/dc/elements/1.1/"
   xmlns:cc="http://creativecommons.org/ns#"
   xmlns:rdf="http://www.w3.org/1999/02/22-rdf-syntax-ns#"
   xmlns:svg="http://www.w3.org/2000/svg"
   xmlns="http://www.w3.org/2000/svg"
   xmlns:sodipodi="http://sodipodi.sourceforge.net/DTD/sodipodi-0.dtd"
   xmlns:inkscape="http://www.inkscape.org/namespaces/inkscape"
   width="102.22938mm"
   height="81.789452mm"
   viewBox="0 0 362.23009 289.80514"
   id="svg4459"
   version="1.1"
   inkscape:version="0.91 r13725"
   sodipodi:docname="photo-missing.svg">
  <defs
     id="defs4461">
    <clipPath
       clipPathUnits="userSpaceOnUse"
       id="clipPath184">
      <path
         d="m 6774.37,3484.35 c 17.28,31.49 31.27,65.19 42.66,99.38 11.3,34.27 19.97,69.35 25.25,104.81 10.86,70.78 7.59,143.69 -14.32,210.62 -10.98,33.36 -25.72,65.46 -45.12,94.67 -19.57,29.01 -41.83,56.26 -67.58,80.2 -5.97,6.4 -13.14,11.67 -19.71,17.48 -6.82,5.56 -13.11,11.69 -20.34,16.79 -14.41,10.2 -27.99,21.37 -43.33,30.32 l -22.41,14.12 c -7.57,4.56 -15.53,8.54 -23.27,12.84 l -48.11,26.19 c -32.05,17.62 -64.12,34.21 -95.53,55.48 l -47.38,30.39 -45.04,33.03 c -30.64,21.28 -58.34,46.34 -87.13,70.1 -14.32,11.98 -27.33,25.44 -41.05,38.12 l -20.34,19.29 c -6.84,6.38 -12.93,13.52 -19.42,20.24 -12.73,13.71 -25.77,27.16 -38.24,41.12 l -36.12,43.11 c -23.19,29.46 -45.86,59.47 -66.41,91.01 -21.02,31.23 -39.96,63.93 -57.87,97.31 -8.44,17.02 -17.28,33.78 -24.83,51.43 -3.97,8.68 -7.78,17.51 -11.31,26.59 -1.8,4.53 -3.66,8.92 -5.33,13.71 -1.72,4.76 -3.38,9.08 -5.21,14.89 l 75.13,-0.49 c -9.48,-34.68 -17.67,-72.37 -24.63,-109.13 -7.04,-37.01 -12.92,-74.29 -17.89,-111.63 -9.89,-74.72 -14.95,-149.94 -15.53,-224.8 -0.13,-37.42 0.43,-74.76 2.58,-111.93 2.13,-37.16 5.04,-74.18 9.94,-110.84 4.65,-36.68 10.4,-73.13 18.15,-109.03 7.54,-35.94 16.33,-71.56 27.65,-106.26 11.27,-34.69 23.7,-68.97 38.76,-102.05 14.86,-33.18 32.18,-65.16 51.8,-95.63 19.22,-30.76 40.69,-60.14 64.33,-87.83 23.96,-27.38 49.96,-53.08 77.47,-77.39 27.5,-24.39 57.71,-45.71 88.69,-66.15 30.97,-20.59 64.03,-38.14 97.71,-54.88 34,-16.04 68.72,-31.37 104.65,-43.93 35.71,-13.3 72.38,-24.35 109.37,-35.2 l -1.74,-9.84 c -19.24,2.12 -38.68,3.64 -57.98,6.29 -19.2,3.12 -38.62,5.62 -57.71,9.8 -9.6,1.9 -19.22,3.82 -28.79,5.94 l -28.52,7.29 c -19.17,4.48 -37.76,11.02 -56.76,16.56 -37.18,13.25 -74.29,27.66 -109.98,45.7 -35.52,18.19 -70.32,38.51 -103.03,62.16 -32.88,23.4 -63.89,49.68 -92.71,78.36 -28.59,28.87 -55.06,59.96 -79.13,92.85 -23.76,33.09 -44.98,68.01 -63.47,104.22 -18.46,36.19 -34.98,73.39 -48.37,111.61 -27.26,76.32 -44.07,155.52 -53.61,234.91 -4.47,39.75 -7.52,79.54 -8.34,119.3 -0.86,39.75 -0.47,79.43 1.74,118.94 4.11,79.04 13.76,157.34 26.76,234.86 6.68,38.74 14.29,77.28 23.12,115.59 8.92,38.56 18.43,75.84 30.49,115.07 l 0.22,0.69 c 6.32,20.6 28.15,32.16 48.75,25.83 13.15,-4.05 22.69,-14.68 26.16,-27.01 0.8,-2.93 2.24,-7.2 3.49,-11.06 1.2,-3.89 2.77,-7.95 4.21,-11.96 2.81,-8.03 5.96,-16.07 9.33,-24.11 6.24,-16.14 13.96,-31.97 21.18,-47.9 15.59,-31.46 32.23,-62.62 51,-92.6 18.3,-30.27 38.75,-59.26 59.73,-87.87 l 32.84,-41.97 c 11.39,-13.63 23.36,-26.8 35.02,-40.24 5.96,-6.6 11.5,-13.61 17.83,-19.88 l 18.77,-19.01 c 12.68,-12.49 24.64,-25.79 37.94,-37.68 26.76,-23.56 52.44,-48.52 81.18,-69.87 l 42.17,-33.18 43.81,-30.21 c 28.3,-20.9 60.71,-38.78 91.81,-57.74 l 46.92,-28.21 c 8.02,-4.91 16.23,-9.47 24.07,-14.66 l 23.26,-16.07 c 15.81,-10.2 30.05,-22.84 44.92,-34.4 7.45,-5.78 14.05,-12.69 21.1,-18.97 6.83,-6.56 14.16,-12.53 20.4,-19.73 26.64,-27.01 49.62,-57.59 69.43,-89.95 19.65,-32.56 34.19,-68.05 44.42,-104.43 20.45,-73.05 20.39,-150.13 5.87,-222.88 -7.29,-36.45 -18.01,-72.03 -31.3,-106.46 -13.43,-34.44 -29.21,-67.74 -48.64,-99.35 l -8.55,5.2 z"
         id="path186"
         inkscape:connector-curvature="0" />
    </clipPath>
    <linearGradient
       x1="0"
       y1="0"
       x2="1"
       y2="0"
       gradientUnits="userSpaceOnUse"
       gradientTransform="matrix(1018.63,0,0,-1018.63,5854.5,4134.43)"
       spreadMethod="pad"
       id="linearGradient188">
      <stop
         style="stop-opacity:1;stop-color:#509547"
         offset="0"
         id="stop190" />
      <stop
         style="stop-opacity:1;stop-color:#85d053"
         offset="1"
         id="stop192" />
    </linearGradient>
    <clipPath
       clipPathUnits="userSpaceOnUse"
       id="clipPath200">
      <path
         d="m 6150.42,4213.87 c 0.01,0 5.16,-21.64 18.27,-58.59 13.26,-36.81 33.95,-88.8 64.15,-148.44 29.82,-59.79 69.32,-127.04 116.44,-195.43 12.11,-16.91 23.96,-34.34 37.08,-51.22 6.41,-8.53 12.86,-17.1 19.34,-25.73 6.69,-8.45 13.41,-16.96 20.16,-25.5 26.92,-34.17 56.12,-67.36 85.77,-100 15.44,-15.8 30.38,-31.99 46.18,-47.25 16.07,-15.03 31.69,-30.29 47.92,-44.69 32.59,-28.48 64.67,-56.5 95.72,-83.63 15.63,-13.41 30.82,-26.79 45.38,-40.27 14.94,-13.05 29.5,-25.93 43.49,-38.75 13.94,-12.86 28.09,-24.72 41.52,-36.55 13.34,-11.95 26.19,-23.61 38.9,-34.38 25.33,-21.64 47.98,-42.56 68.88,-60.17 20.59,-18.27 38.55,-34.2 53.34,-47.31 14.83,-13.24 26.43,-23.88 34.22,-31.39 7.83,-7.44 11.9,-11.62 11.9,-11.62 l -5.02,-8.65 c 0,0 -5.56,1.64 -15.82,5.1 -10.3,3.4 -25.21,8.76 -44.13,15.89 -19.04,6.93 -41.25,17.01 -66.64,28.99 -25.61,11.61 -53.37,26.73 -83.41,43.83 -15.26,8.19 -30.2,18.16 -46.03,28.01 -15.48,10.34 -32.15,20.19 -47.96,32.12 -16.1,11.56 -32.67,23.46 -49.12,36.22 -16.19,13.1 -32.43,26.87 -48.75,41.09 -16.02,14.57 -31.69,30.07 -47.37,45.91 -15.75,15.76 -30.42,33.02 -45.77,49.75 -15.11,16.97 -29.6,34.78 -44.58,52.16 -14.49,17.79 -29.04,35.66 -43.59,53.52 -13.97,18.34 -28.35,36.29 -41.85,54.81 -13.31,18.68 -27.08,36.84 -39.48,55.8 -6.33,9.37 -12.64,18.71 -18.91,28 -5.94,9.49 -11.87,18.94 -17.76,28.34 -11.92,18.66 -22.56,37.83 -33.42,56.37 -20.92,37.6 -40.46,74.25 -56.75,110.1 -16.71,35.61 -30.85,70.01 -43.04,102.02 -12.36,31.95 -21.7,61.97 -29.84,88.5 -7.94,26.63 -13.79,50.14 -18.15,69.57 -8.58,38.89 -11.11,61.73 -11.11,61.73 l 9.84,1.74 z"
         id="path202"
         inkscape:connector-curvature="0" />
    </clipPath>
    <linearGradient
       x1="0"
       y1="0"
       x2="1"
       y2="0"
       gradientUnits="userSpaceOnUse"
       gradientTransform="matrix(898.506,0,0,-898.506,6140.58,3669.08)"
       spreadMethod="pad"
       id="linearGradient204">
      <stop
         style="stop-opacity:1;stop-color:#509547"
         offset="0"
         id="stop206" />
      <stop
         style="stop-opacity:1;stop-color:#85d053"
         offset="1"
         id="stop208" />
    </linearGradient>
  </defs>
  <sodipodi:namedview
     id="base"
     pagecolor="#ffffff"
     bordercolor="#666666"
     borderopacity="1.0"
     inkscape:pageopacity="0.0"
     inkscape:pageshadow="2"
     inkscape:zoom="0.35"
     inkscape:cx="181.11503"
     inkscape:cy="144.90258"
     inkscape:document-units="px"
     inkscape:current-layer="layer1"
     showgrid="false"
     fit-margin-top="20"
     fit-margin-left="20"
     fit-margin-right="20"
     fit-margin-bottom="20"
     inkscape:window-width="1920"
     inkscape:window-height="1060"
     inkscape:window-x="0"
     inkscape:window-y="1"
     inkscape:window-maximized="1" />
  <metadata
     id="metadata4464">
    <rdf:RDF>
      <cc:Work
         rdf:about="">
        <dc:format>image/svg+xml</dc:format>
        <dc:type
           rdf:resource="http://purl.org/dc/dcmitype/StillImage" />
        <dc:title></dc:title>
      </cc:Work>
    </rdf:RDF>
  </metadata>
  <g
     inkscape:label="Layer 1"
     inkscape:groupmode="layer"
     id="layer1"
     transform="translate(261.82932,-387.45963)">
    <g
       transform="matrix(0,0.125,0.125,0,-581.50068,-273.48636)"
       id="g4426">
      <g
         id="g180">
        <g
           clip-path="url(#clipPath184)"
           id="g182">
          <path
             inkscape:connector-curvature="0"
             id="path194"
             style="fill:url(#linearGradient188);fill-opacity:1;fill-rule:nonzero;stroke:none"
             d="m 6774.37,3484.35 c 17.28,31.49 31.27,65.19 42.66,99.38 11.3,34.27 19.97,69.35 25.25,104.81 10.86,70.78 7.59,143.69 -14.32,210.62 -10.98,33.36 -25.72,65.46 -45.12,94.67 -19.57,29.01 -41.83,56.26 -67.58,80.2 -5.97,6.4 -13.14,11.67 -19.71,17.48 -6.82,5.56 -13.11,11.69 -20.34,16.79 -14.41,10.2 -27.99,21.37 -43.33,30.32 l -22.41,14.12 c -7.57,4.56 -15.53,8.54 -23.27,12.84 l -48.11,26.19 c -32.05,17.62 -64.12,34.21 -95.53,55.48 l -47.38,30.39 -45.04,33.03 c -30.64,21.28 -58.34,46.34 -87.13,70.1 -14.32,11.98 -27.33,25.44 -41.05,38.12 l -20.34,19.29 c -6.84,6.38 -12.93,13.52 -19.42,20.24 -12.73,13.71 -25.77,27.16 -38.24,41.12 l -36.12,43.11 c -23.19,29.46 -45.86,59.47 -66.41,91.01 -21.02,31.23 -39.96,63.93 -57.87,97.31 -8.44,17.02 -17.28,33.78 -24.83,51.43 -3.97,8.68 -7.78,17.51 -11.31,26.59 -1.8,4.53 -3.66,8.92 -5.33,13.71 -1.72,4.76 -3.38,9.08 -5.21,14.89 l 75.13,-0.49 c -9.48,-34.68 -17.67,-72.37 -24.63,-109.13 -7.04,-37.01 -12.92,-74.29 -17.89,-111.63 -9.89,-74.72 -14.95,-149.94 -15.53,-224.8 -0.13,-37.42 0.43,-74.76 2.58,-111.93 2.13,-37.16 5.04,-74.18 9.94,-110.84 4.65,-36.68 10.4,-73.13 18.15,-109.03 7.54,-35.94 16.33,-71.56 27.65,-106.26 11.27,-34.69 23.7,-68.97 38.76,-102.05 14.86,-33.18 32.18,-65.16 51.8,-95.63 19.22,-30.76 40.69,-60.14 64.33,-87.83 23.96,-27.38 49.96,-53.08 77.47,-77.39 27.5,-24.39 57.71,-45.71 88.69,-66.15 30.97,-20.59 64.03,-38.14 97.71,-54.88 34,-16.04 68.72,-31.37 104.65,-43.93 35.71,-13.3 72.38,-24.35 109.37,-35.2 l -1.74,-9.84 c -19.24,2.12 -38.68,3.64 -57.98,6.29 -19.2,3.12 -38.62,5.62 -57.71,9.8 -9.6,1.9 -19.22,3.82 -28.79,5.94 l -28.52,7.29 c -19.17,4.48 -37.76,11.02 -56.76,16.56 -37.18,13.25 -74.29,27.66 -109.98,45.7 -35.52,18.19 -70.32,38.51 -103.03,62.16 -32.88,23.4 -63.89,49.68 -92.71,78.36 -28.59,28.87 -55.06,59.96 -79.13,92.85 -23.76,33.09 -44.98,68.01 -63.47,104.22 -18.46,36.19 -34.98,73.39 -48.37,111.61 -27.26,76.32 -44.07,155.52 -53.61,234.91 -4.47,39.75 -7.52,79.54 -8.34,119.3 -0.86,39.75 -0.47,79.43 1.74,118.94 4.11,79.04 13.76,157.34 26.76,234.86 6.68,38.74 14.29,77.28 23.12,115.59 8.92,38.56 18.43,75.84 30.49,115.07 l 0.22,0.69 c 6.32,20.6 28.15,32.16 48.75,25.83 13.15,-4.05 22.69,-14.68 26.16,-27.01 0.8,-2.93 2.24,-7.2 3.49,-11.06 1.2,-3.89 2.77,-7.95 4.21,-11.96 2.81,-8.03 5.96,-16.07 9.33,-24.11 6.24,-16.14 13.96,-31.97 21.18,-47.9 15.59,-31.46 32.23,-62.62 51,-92.6 18.3,-30.27 38.75,-59.26 59.73,-87.87 l 32.84,-41.97 c 11.39,-13.63 23.36,-26.8 35.02,-40.24 5.96,-6.6 11.5,-13.61 17.83,-19.88 l 18.77,-19.01 c 12.68,-12.49 24.64,-25.79 37.94,-37.68 26.76,-23.56 52.44,-48.52 81.18,-69.87 l 42.17,-33.18 43.81,-30.21 c 28.3,-20.9 60.71,-38.78 91.81,-57.74 l 46.92,-28.21 c 8.02,-4.91 16.23,-9.47 24.07,-14.66 l 23.26,-16.07 c 15.81,-10.2 30.05,-22.84 44.92,-34.4 7.45,-5.78 14.05,-12.69 21.1,-18.97 6.83,-6.56 14.16,-12.53 20.4,-19.73 26.64,-27.01 49.62,-57.59 69.43,-89.95 19.65,-32.56 34.19,-68.05 44.42,-104.43 20.45,-73.05 20.39,-150.13 5.87,-222.88 -7.29,-36.45 -18.01,-72.03 -31.3,-106.46 -13.43,-34.44 -29.21,-67.74 -48.64,-99.35 l -8.55,5.2" />
        </g>
      </g>
      <g
         id="g196">
        <g
           clip-path="url(#clipPath200)"
           id="g198">
          <path
             inkscape:connector-curvature="0"
             id="path210"
             style="fill:url(#linearGradient204);fill-opacity:1;fill-rule:nonzero;stroke:none"
             d="m 6150.42,4213.87 c 0.01,0 5.16,-21.64 18.27,-58.59 13.26,-36.81 33.95,-88.8 64.15,-148.44 29.82,-59.79 69.32,-127.04 116.44,-195.43 12.11,-16.91 23.96,-34.34 37.08,-51.22 6.41,-8.53 12.86,-17.1 19.34,-25.73 6.69,-8.45 13.41,-16.96 20.16,-25.5 26.92,-34.17 56.12,-67.36 85.77,-100 15.44,-15.8 30.38,-31.99 46.18,-47.25 16.07,-15.03 31.69,-30.29 47.92,-44.69 32.59,-28.48 64.67,-56.5 95.72,-83.63 15.63,-13.41 30.82,-26.79 45.38,-40.27 14.94,-13.05 29.5,-25.93 43.49,-38.75 13.94,-12.86 28.09,-24.72 41.52,-36.55 13.34,-11.95 26.19,-23.61 38.9,-34.38 25.33,-21.64 47.98,-42.56 68.88,-60.17 20.59,-18.27 38.55,-34.2 53.34,-47.31 14.83,-13.24 26.43,-23.88 34.22,-31.39 7.83,-7.44 11.9,-11.62 11.9,-11.62 l -5.02,-8.65 c 0,0 -5.56,1.64 -15.82,5.1 -10.3,3.4 -25.21,8.76 -44.13,15.89 -19.04,6.93 -41.25,17.01 -66.64,28.99 -25.61,11.61 -53.37,26.73 -83.41,43.83 -15.26,8.19 -30.2,18.16 -46.03,28.01 -15.48,10.34 -32.15,20.19 -47.96,32.12 -16.1,11.56 -32.67,23.46 -49.12,36.22 -16.19,13.1 -32.43,26.87 -48.75,41.09 -16.02,14.57 -31.69,30.07 -47.37,45.91 -15.75,15.76 -30.42,33.02 -45.77,49.75 -15.11,16.97 -29.6,34.78 -44.58,52.16 -14.49,17.79 -29.04,35.66 -43.59,53.52 -13.97,18.34 -28.35,36.29 -41.85,54.81 -13.31,18.68 -27.08,36.84 -39.48,55.8 -6.33,9.37 -12.64,18.71 -18.91,28 -5.94,9.49 -11.87,18.94 -17.76,28.34 -11.92,18.66 -22.56,37.83 -33.42,56.37 -20.92,37.6 -40.46,74.25 -56.75,110.1 -16.71,35.61 -30.85,70.01 -43.04,102.02 -12.36,31.95 -21.7,61.97 -29.84,88.5 -7.94,26.63 -13.79,50.14 -18.15,69.57 -8.58,38.89 -11.11,61.73 -11.11,61.73 l 9.84,1.74" />
        </g>
      </g>
    </g>
  </g>
</svg>
