<?xml version="1.0" encoding="UTF-8" standalone="no"?>
<!-- Created with Inkscape (http://www.inkscape.org/) -->

<svg
   xmlns:dc="http://purl.org/dc/elements/1.1/"
   xmlns:cc="http://creativecommons.org/ns#"
   xmlns:rdf="http://www.w3.org/1999/02/22-rdf-syntax-ns#"
   xmlns:svg="http://www.w3.org/2000/svg"
   xmlns="http://www.w3.org/2000/svg"
   xmlns:sodipodi="http://sodipodi.sourceforge.net/DTD/sodipodi-0.dtd"
   xmlns:inkscape="http://www.inkscape.org/namespaces/inkscape"
   width="168.37234mm"
   height="39.81794mm"
   viewBox="0 0 596.59492 141.08719"
   id="svg4682"
   version="1.1"
   inkscape:version="0.91 r13725"
   sodipodi:docname="south-coast-farms-logo.svg">
  <defs
     id="defs4684" />
  <sodipodi:namedview
     id="base"
     pagecolor="#ffffff"
     bordercolor="#666666"
     borderopacity="1.0"
     inkscape:pageopacity="0.0"
     inkscape:pageshadow="2"
     inkscape:zoom="1.4"
     inkscape:cx="202.95689"
     inkscape:cy="-102.92601"
     inkscape:document-units="px"
     inkscape:current-layer="layer1"
     showgrid="false"
     fit-margin-top="0"
     fit-margin-left="0"
     fit-margin-right="0"
     fit-margin-bottom="0"
     inkscape:window-width="1920"
     inkscape:window-height="1060"
     inkscape:window-x="0"
     inkscape:window-y="1"
     inkscape:window-maximized="1" />
  <metadata
     id="metadata4687">
    <rdf:RDF>
      <cc:Work
         rdf:about="">
        <dc:format>image/svg+xml</dc:format>
        <dc:type
           rdf:resource="http://purl.org/dc/dcmitype/StillImage" />
        <dc:title></dc:title>
      </cc:Work>
    </rdf:RDF>
  </metadata>
  <g
     inkscape:label="Layer 1"
     inkscape:groupmode="layer"
     id="layer1"
     transform="translate(-27.167876,7.934385)">
    <g
       id="g4604"
       transform="matrix(0.9375,0,0,0.9375,-363.27603,-173.17251)">
      <g
         transform="translate(-2.7775,0)"
         id="g4455">
        <g
           id="g4493">
          <g
             transform="translate(419.251,176.254)"
             id="g30">
            <path
               inkscape:connector-curvature="0"
               id="path32"
               style="fill:#4790d4;fill-opacity:1;fill-rule:nonzero;stroke:none"
               d="M 0,0 0,130.849 C 6.065,123.775 17.021,116.246 29.661,109.063 54.502,94.957 85.877,82.194 99.57,76.896 c -14.996,1.957 -46.128,9.262 -72.791,25.802 -1.455,0.902 -2.897,1.819 -4.316,2.777 0.68,-3.528 1.49,-6.803 2.418,-9.85 3.301,-10.854 8.128,-18.773 14.061,-24.643 L 14.185,84.316 42.818,62.562 7.135,67.029 41.695,57.085 6.811,48.358 42.627,51.572 13.246,30.833 45.488,46.769 25.586,16.815 49.887,43.321 42.15,8.202 55.237,41.696 60.707,6.154 60.811,42.115 78.751,10.947 65.86,44.521 93.846,21.936 69.695,48.586 103.955,37.641 71.807,53.762 80.212,54.27 c -0.01,10e-4 -0.02,0.003 -0.03,0.004 5.313,-0.718 10.764,-1.25 16.268,-1.786 1.744,-0.167 3.496,-0.34 5.245,-0.518 l 0.015,-0.01 3.311,-0.353 -0.021,0.018 c 15.903,-1.716 31.796,-4.339 45.499,-12.542 L 150.499,0 0,0 Z" />
          </g>
          <g
             transform="translate(419.251,176.254)"
             id="g34">
            <path
               inkscape:connector-curvature="0"
               id="path36"
               style="fill:#288a3d;fill-opacity:1;fill-rule:nonzero;stroke:none"
               d="m 17.662,134.598 c 0.14,0.003 0.278,0.01 0.418,0.018 l -0.175,0.157 c -0.119,0.106 -0.297,0.102 -0.403,-0.015 -0.048,-0.051 -0.063,-0.109 -0.068,-0.17 C 11.364,134.304 5.521,133.599 0,132.542 l 0,17.951 150.498,0 0,-109.318 c -18.785,70.882 -83.137,95.681 -132.836,93.423 z" />
          </g>
        </g>
      </g>
    </g>
    <g
       transform="matrix(1.1034175,0,0,1.2699115,-149.22074,-445.29189)"
       id="g4180">
      <g
         transform="matrix(1.0844418,0,0,1.0844418,-26.437053,-34.312381)"
         id="g4570">
        <g
           id="g4499">
          <g
             transform="translate(0,2.1333333)"
             id="g4461">
            <g
               id="g38"
               transform="translate(495,384)">
              <path
                 d="m -147.76,12.93 c 0,2.507 -1.413,4.4 -4.24,5.68 -2.293,1.067 -4.827,1.6 -7.6,1.6 -7.627,0 -14.453,-1.573 -20.48,-4.72 -1.227,-0.64 -1.84,-1.413 -1.84,-2.32 0,-0.533 0.293,-0.933 0.88,-1.2 0.16,0.107 0.427,0.347 0.8,0.72 0.32,0.32 0.773,0.773 1.36,1.36 0.267,0.267 2.053,0.8 5.36,1.6 4.533,1.12 8.827,1.68 12.88,1.68 5.76,0 8.64,-1.653 8.64,-4.96 0,-1.92 -0.747,-3.2 -2.24,-3.84 l -18.4,-7.92 c -3.68,-1.6 -5.52,-4.8 -5.52,-9.6 0,-4.8 2.213,-11.68 6.64,-20.64 2.187,-4.267 4.64,-6.4 7.36,-6.4 3.147,0 6.027,1.227 8.64,3.68 2.72,2.453 4.187,5.227 4.4,8.32 0.107,1.813 0.187,3.573 0.24,5.28 0.107,1.653 0.16,3.307 0.16,4.96 0,3.2 -0.587,4.8 -1.76,4.8 -1.227,0 -1.84,-0.907 -1.84,-2.72 0,-3.84 -0.24,-8.08 -0.72,-12.72 -0.267,-2.027 -1.013,-3.947 -2.24,-5.76 -1.44,-2.187 -3.067,-3.28 -4.88,-3.28 -2.613,0 -5.307,3.467 -8.08,10.4 -2.453,6.027 -3.68,10.72 -3.68,14.08 0,1.76 0.48,3.44 1.44,5.04 1.013,1.547 2.32,2.64 3.92,3.28 l 14.32,6 c 4.32,1.867 6.48,4.4 6.48,7.6 z"
                 style="fill:#288a3d;fill-opacity:1;fill-rule:nonzero;stroke:none"
                 id="path40"
                 inkscape:connector-curvature="0" />
            </g>
            <g
               id="g42"
               transform="translate(495,384)">
              <path
                 d="m -122.905,-4.99 c 0,2.347 -0.693,5.12 -2.08,8.32 -1.227,2.827 -2.853,4.24 -4.88,4.24 -0.267,0 -1.2,-0.32 -2.8,-0.96 -0.107,0.587 -0.24,1.253 -0.4,2 -0.16,0.747 -0.347,1.573 -0.56,2.48 -0.427,1.227 -0.827,2.267 -1.2,3.12 -0.32,0.853 -0.613,1.493 -0.88,1.92 -1.067,1.707 -2.373,2.56 -3.92,2.56 -3.893,0 -5.84,-3.973 -5.84,-11.92 0,-5.067 0.427,-8.48 1.28,-10.24 0,0.16 0,0.213 0,0.16 0,-0.107 -0.027,-0.347 -0.08,-0.72 -0.053,-0.373 -0.08,-0.667 -0.08,-0.88 0,-0.267 0,-0.453 0,-0.56 0.053,-0.48 0.213,-0.853 0.48,-1.12 0.107,-0.267 0.213,-0.667 0.32,-1.2 0.107,-0.533 0.267,-1.253 0.48,-2.16 0.373,-1.813 1.28,-2.72 2.72,-2.72 1.387,0 2.827,0.587 4.32,1.76 1.547,1.173 2.533,2.373 2.96,3.6 0.427,1.28 0.64,5.147 0.64,11.6 0.747,0.587 1.413,0.88 2,0.88 1.867,0 3.253,-1.04 4.16,-3.12 0.427,-0.8 0.987,-2.907 1.68,-6.32 0.213,-0.96 0.533,-1.44 0.96,-1.44 0.48,0 0.72,0.24 0.72,0.72 z m -12.08,11.84 c 0,-0.587 -0.053,-1.307 -0.16,-2.16 -0.107,-0.853 -0.267,-1.84 -0.48,-2.96 -0.213,-1.12 -0.373,-2.08 -0.48,-2.88 -0.107,-0.853 -0.16,-1.573 -0.16,-2.16 0,-0.373 0.027,-0.96 0.08,-1.76 0.107,-0.8 0.16,-1.387 0.16,-1.76 0,-1.867 -0.853,-2.8 -2.56,-2.8 -1.12,0 -2.107,2.507 -2.96,7.52 -0.8,4.32 -1.2,7.6 -1.2,9.84 0,5.76 1.173,8.64 3.52,8.64 0.587,0 1.36,-1.067 2.32,-3.2 1.28,-2.773 1.92,-4.88 1.92,-6.32 z"
                 style="fill:#288a3d;fill-opacity:1;fill-rule:nonzero;stroke:none"
                 id="path44"
                 inkscape:connector-curvature="0" />
            </g>
            <g
               id="g46"
               transform="translate(495,384)">
              <path
                 d="m -110.257,17.09 c -1.174,0 -2.187,-0.88 -3.041,-2.64 -0.213,-0.32 -0.693,-1.707 -1.44,-4.16 -0.373,0.907 -0.773,1.867 -1.2,2.88 -0.426,0.96 -0.853,1.973 -1.279,3.04 -0.96,1.653 -2.214,2.48 -3.761,2.48 -1.386,0 -2.48,-0.8 -3.279,-2.4 -0.64,-1.333 -0.96,-2.773 -0.96,-4.32 0,-1.12 0.026,-2.48 0.08,-4.08 0.053,-1.653 0.133,-3.573 0.24,-5.76 0.213,-5.44 0.506,-8.453 0.879,-9.04 0.267,-0.427 0.72,-0.64 1.36,-0.64 0.534,0 1.014,0.24 1.441,0.72 0.426,0.427 0.64,0.907 0.64,1.44 0,0.533 -0.107,1.147 -0.32,1.84 -0.107,0.533 -0.214,0.96 -0.32,1.28 -0.054,0.267 -0.107,0.453 -0.161,0.56 -0.373,2.08 -0.666,4.373 -0.879,6.88 -0.161,2.453 -0.24,5.12 -0.24,8 0,2.347 0.506,3.52 1.519,3.52 0.801,0 1.547,-0.667 2.24,-2 0.267,-0.533 0.507,-1.04 0.72,-1.52 0.214,-0.533 0.427,-1.067 0.64,-1.6 1.174,-2.773 2.054,-6.24 2.64,-10.4 0.054,-0.107 0.107,-0.453 0.161,-1.04 0.106,-0.587 0.24,-1.387 0.4,-2.4 0.106,-0.747 0.186,-1.387 0.239,-1.92 0.107,-0.587 0.161,-1.093 0.161,-1.52 0,-1.227 0,-2.08 0,-2.56 0,-0.533 -0.027,-0.693 -0.08,-0.48 0.16,-1.387 0.693,-2.027 1.6,-1.92 1.546,0 2.319,0.427 2.319,1.28 0,0.267 -0.16,0.72 -0.48,1.36 -0.266,0.587 -0.426,1.12 -0.48,1.6 0,0.213 -0.08,0.827 -0.24,1.84 -0.106,0.96 -0.293,2.347 -0.56,4.16 -0.213,1.493 -0.373,2.853 -0.48,4.08 -0.106,1.227 -0.16,2.32 -0.16,3.28 0,5.067 0.774,7.6 2.32,7.6 1.44,0 2.987,-2.827 4.64,-8.48 0.64,-2.293 1.6,-5.813 2.88,-10.56 0.214,-0.8 0.534,-1.2 0.96,-1.2 0.427,0 0.64,0.32 0.64,0.96 0,1.867 -0.906,5.6 -2.72,11.2 -2.24,7.093 -4.453,10.64 -6.64,10.64 l 10e-4,0 z"
                 style="fill:#288a3d;fill-opacity:1;fill-rule:nonzero;stroke:none"
                 id="path48"
                 inkscape:connector-curvature="0" />
            </g>
            <g
               id="g50"
               transform="translate(495,384)">
              <path
                 d="m -79.426,-20.43 c -0.214,0.267 -1.547,0.613 -4,1.04 -2.027,0.373 -3.547,0.56 -4.56,0.56 -1.067,0 -2.187,0 -3.36,0 -1.174,0 -2.4,-0.027 -3.68,-0.08 l -3.84,-0.08 c -1.28,8.96 -1.92,15.52 -1.92,19.68 0,2.4 0,4.347 0,5.84 0.053,1.493 0.106,2.533 0.16,3.12 0.213,3.253 0.96,4.88 2.24,4.88 2.08,0 4.426,-5.547 7.04,-16.64 0.533,-2.4 0.986,-3.6 1.36,-3.6 0.533,0 0.8,0.4 0.8,1.2 0,1.76 -0.934,5.52 -2.8,11.28 -2.347,6.987 -4.56,10.48 -6.64,10.48 -1.814,0 -3.174,-1.813 -4.08,-5.44 -0.587,-2.507 -0.88,-4.987 -0.88,-7.44 0,-1.227 0.16,-3.76 0.48,-7.6 0.373,-3.893 0.906,-9.12 1.6,-15.68 -0.907,-0.107 -3.6,-0.187 -8.08,-0.24 l -1.84,0.56 c -0.374,-0.427 -0.934,-0.8 -1.68,-1.12 -0.587,-0.267 -0.88,-0.56 -0.88,-0.88 0,-0.373 0.32,-0.56 0.96,-0.56 1.013,0 2.48,-0.027 4.4,-0.08 1.92,-0.107 4.346,-0.213 7.28,-0.32 0.053,-0.587 0.106,-1.36 0.16,-2.32 0.053,-1.013 0.133,-2.213 0.24,-3.6 l -0.4,-1.44 c 0.16,-0.373 0.453,-0.56 0.88,-0.56 0.693,0 1.76,0.48 3.2,1.44 l 0,1.68 c -0.107,0.693 -0.24,1.44 -0.4,2.24 -0.16,0.8 -0.347,1.68 -0.56,2.64 0.426,0 1.253,0.027 2.48,0.08 1.28,0 2.986,0.027 5.12,0.08 1.066,0.053 2.506,0.107 4.32,0.16 1.866,0 4.16,0.053 6.88,0.16 l 0,0.56 0,0 z"
                 style="fill:#288a3d;fill-opacity:1;fill-rule:nonzero;stroke:none"
                 id="path52"
                 inkscape:connector-curvature="0" />
            </g>
            <g
               id="g54"
               transform="translate(495,384)">
              <path
                 d="m -70.107,6.05 c -0.587,2.133 -1.067,3.84 -1.441,5.12 -0.373,1.28 -0.666,2.133 -0.879,2.56 -0.96,2.293 -2.134,3.44 -3.52,3.44 -3.147,0 -4.88,-2.987 -5.2,-8.96 0,0 -0.027,-1.04 -0.08,-3.12 0,-2.133 -0.027,-5.36 -0.08,-9.68 -0.907,1.387 -2.907,9.04 -6,22.96 -0.374,0.213 -0.747,0.32 -1.12,0.32 -2.134,0 -3.2,-4.32 -3.2,-12.96 0,-2.187 0.16,-4.88 0.48,-8.08 0.32,-3.253 0.773,-7.067 1.36,-11.44 0.586,-4.373 1.04,-8.16 1.36,-11.36 0.32,-3.253 0.48,-5.973 0.48,-8.16 0,-0.48 -0.027,-0.907 -0.08,-1.28 0,-0.373 -0.027,-0.693 -0.08,-0.96 0.373,-0.853 1.253,-1.253 2.64,-1.2 1.066,0.107 1.6,0.587 1.6,1.44 0,0.693 -0.24,1.84 -0.72,3.44 -0.107,0.533 -0.214,1.067 -0.32,1.6 -0.107,0.48 -0.214,0.96 -0.32,1.44 -1.227,7.787 -2.16,14.56 -2.8,20.32 -0.64,5.76 -0.96,10.56 -0.96,14.4 0,-0.107 0.053,0.453 0.16,1.68 0.16,1.173 0.373,3.013 0.64,5.52 1.333,-3.733 2.533,-7.6 3.6,-11.6 1.066,-4.053 2,-8.293 2.8,-12.72 0.213,-1.44 0.746,-2.16 1.6,-2.16 0.586,0 1.733,0.72 3.44,2.16 -1.44,7.627 -2.16,13.947 -2.16,18.96 0,4.32 0.853,6.48 2.56,6.48 1.493,0 3.253,-3.6 5.28,-10.8 0.373,-1.227 0.72,-2.453 1.04,-3.68 0.32,-1.227 0.613,-2.453 0.88,-3.68 0.213,-1.173 0.559,-1.76 1.04,-1.76 0.48,0 0.72,0.347 0.72,1.04 0,0.747 -0.907,4.32 -2.72,10.72 z"
                 style="fill:#288a3d;fill-opacity:1;fill-rule:nonzero;stroke:none"
                 id="path56"
                 inkscape:connector-curvature="0" />
            </g>
            <g
               id="g58"
               transform="translate(495,384)">
              <path
                 d="m -20.877,7.81 c 0.746,0.107 1.12,0.427 1.12,0.96 0,0.267 -0.24,0.987 -0.72,2.16 -1.814,2.347 -4.454,4.293 -7.92,5.84 -3.467,1.44 -6.774,2.16 -9.92,2.16 -4.96,0 -8.774,-1.813 -11.44,-5.44 -2.347,-3.307 -3.52,-7.493 -3.52,-12.56 0,-5.867 1.146,-12.4 3.44,-19.6 2.773,-8.8 6.213,-14.533 10.32,-17.2 1.013,-0.693 2.56,-1.04 4.64,-1.04 2.933,0 5.786,0.827 8.56,2.48 1.76,1.013 2.933,2.08 3.52,3.2 0.8,1.44 1.2,3.707 1.2,6.8 0,1.867 -0.32,4.507 -0.96,7.92 -0.8,4.267 -1.707,6.4 -2.72,6.4 -0.694,0 -1.254,-0.533 -1.68,-1.6 -0.374,-0.8 -0.56,-1.6 -0.56,-2.4 0,-1.44 0.453,-3.893 1.36,-7.36 0.906,-3.52 1.36,-6.08 1.36,-7.68 0,-1.76 -1.12,-3.173 -3.36,-4.24 -1.814,-0.907 -3.68,-1.36 -5.6,-1.36 -4,0 -7.627,4.48 -10.88,13.44 -3.04,8.267 -4.56,16.373 -4.56,24.32 0,8.96 3.306,13.44 9.92,13.44 5.92,0 11.626,-2.107 17.12,-6.32 l 1.28,-2.32 0,0 z"
                 style="fill:#288a3d;fill-opacity:1;fill-rule:nonzero;stroke:none"
                 id="path60"
                 inkscape:connector-curvature="0" />
            </g>
            <g
               id="g62"
               transform="translate(495,384)">
              <path
                 d="m 3.345,-4.99 c 0,2.347 -0.693,5.12 -2.08,8.32 -1.227,2.827 -2.853,4.24 -4.88,4.24 -0.267,0 -1.2,-0.32 -2.8,-0.96 -0.107,0.587 -0.24,1.253 -0.4,2 -0.16,0.747 -0.347,1.573 -0.56,2.48 -0.427,1.227 -0.827,2.267 -1.2,3.12 -0.32,0.853 -0.613,1.493 -0.88,1.92 -1.067,1.707 -2.373,2.56 -3.92,2.56 -3.893,0 -5.84,-3.973 -5.84,-11.92 0,-5.067 0.427,-8.48 1.28,-10.24 0,0.16 0,0.213 0,0.16 0,-0.107 -0.027,-0.347 -0.08,-0.72 -0.053,-0.373 -0.08,-0.667 -0.08,-0.88 0,-0.267 0,-0.453 0,-0.56 0.053,-0.48 0.213,-0.853 0.48,-1.12 0.107,-0.267 0.213,-0.667 0.32,-1.2 0.107,-0.533 0.267,-1.253 0.48,-2.16 0.373,-1.813 1.28,-2.72 2.72,-2.72 1.387,0 2.827,0.587 4.32,1.76 1.547,1.173 2.533,2.373 2.96,3.6 0.427,1.28 0.64,5.147 0.64,11.6 0.747,0.587 1.413,0.88 2,0.88 1.867,0 3.253,-1.04 4.16,-3.12 0.427,-0.8 0.987,-2.907 1.68,-6.32 0.213,-0.96 0.533,-1.44 0.96,-1.44 0.48,0 0.72,0.24 0.72,0.72 z M -8.735,6.85 c 0,-0.587 -0.053,-1.307 -0.16,-2.16 -0.107,-0.853 -0.267,-1.84 -0.48,-2.96 -0.213,-1.12 -0.373,-2.08 -0.48,-2.88 -0.107,-0.853 -0.16,-1.573 -0.16,-2.16 0,-0.373 0.027,-0.96 0.08,-1.76 0.107,-0.8 0.16,-1.387 0.16,-1.76 0,-1.867 -0.853,-2.8 -2.56,-2.8 -1.12,0 -2.107,2.507 -2.96,7.52 -0.8,4.32 -1.2,7.6 -1.2,9.84 0,5.76 1.173,8.64 3.52,8.64 0.587,0 1.36,-1.067 2.32,-3.2 1.28,-2.773 1.92,-4.88 1.92,-6.32 z"
                 style="fill:#288a3d;fill-opacity:1;fill-rule:nonzero;stroke:none"
                 id="path64"
                 inkscape:connector-curvature="0" />
            </g>
            <g
               id="g66"
               transform="translate(495,384)">
              <path
                 d="m 8.393,-4.43 c -0.214,-2.453 -0.88,-3.68 -2,-3.68 -0.907,0 -1.707,1.28 -2.4,3.84 -0.214,0.587 -0.454,1.36 -0.72,2.32 -0.267,0.96 -0.587,2.053 -0.96,3.28 -0.854,3.253 -1.28,7.28 -1.28,12.08 0,0.907 0.186,1.76 0.56,2.56 0.48,1.013 1.093,1.52 1.84,1.52 1.013,-0.587 2.08,-2.64 3.2,-6.16 0.426,-1.387 0.8,-2.667 1.12,-3.84 0.32,-1.227 0.533,-2.32 0.64,-3.28 l 0.96,-7.36 -0.96,-1.28 z m 4.88,22.4 c -1.974,0 -3.6,-1.947 -4.88,-5.84 -1.387,4.96 -3.174,7.44 -5.36,7.44 -3.147,0 -4.64,-3.893 -4.48,-11.68 0.106,-2.08 0.773,-5.547 2,-10.4 1.546,-5.547 2.853,-8.32 3.92,-8.32 2.346,0 3.84,0.613 4.48,1.84 l 1.44,2.88 2.8,0.96 c -1.334,3.893 -2.24,8.667 -2.72,14.32 -0.107,1.227 0,2.507 0.32,3.84 0.426,1.867 1.093,2.8 2,2.8 1.813,0 4.293,-6.56 7.44,-19.68 0.32,-1.227 0.693,-1.84 1.12,-1.84 0.426,0 0.64,0.4 0.64,1.2 0,1.973 -0.987,6 -2.96,12.08 -2.24,6.933 -4.16,10.4 -5.76,10.4 z"
                 style="fill:#288a3d;fill-opacity:1;fill-rule:nonzero;stroke:none"
                 id="path68"
                 inkscape:connector-curvature="0" />
            </g>
            <g
               id="g70"
               transform="translate(495,384)">
              <path
                 d="m 28.023,11.41 c 0,1.813 -0.374,3.52 -1.12,5.12 -0.96,1.813 -2.32,2.72 -4.08,2.72 -1.6,0 -2.987,-0.667 -4.16,-2 -0.854,-0.853 -1.28,-1.707 -1.28,-2.56 0,-1.013 0.213,-1.573 0.64,-1.68 0.373,0 0.56,0.427 0.56,1.28 0.906,2.027 1.893,3.04 2.96,3.04 2.453,0 3.68,-2.08 3.68,-6.24 0,-1.813 -0.534,-4.613 -1.6,-8.4 -0.587,-1.92 -1.147,-3.6 -1.68,-5.04 -0.214,0.747 -0.507,1.707 -0.88,2.88 -0.32,1.12 -0.694,2.453 -1.12,4 -0.534,1.813 -1.227,2.72 -2.08,2.72 -0.107,0 -0.32,-0.053 -0.64,-0.16 2.186,-8.267 3.28,-14.16 3.28,-17.68 0,-1.44 0.693,-2.16 2.08,-2.16 1.546,0 2.32,0.507 2.32,1.52 0,0.16 -0.054,0.427 -0.16,0.8 -0.054,0.373 -0.134,0.773 -0.24,1.2 -0.107,0.427 -0.214,0.853 -0.32,1.28 -0.054,0.373 -0.08,0.693 -0.08,0.96 0,2.027 0.64,5.147 1.92,9.36 1.333,4.053 2,7.067 2,9.04 z"
                 style="fill:#288a3d;fill-opacity:1;fill-rule:nonzero;stroke:none"
                 id="path72"
                 inkscape:connector-curvature="0" />
            </g>
            <g
               id="g74"
               transform="translate(495,384)">
              <path
                 d="m 56.667,-20.43 c -0.213,0.267 -1.546,0.613 -4,1.04 -2.026,0.373 -3.546,0.56 -4.56,0.56 -1.066,0 -2.186,0 -3.36,0 -1.173,0 -2.4,-0.027 -3.68,-0.08 l -3.84,-0.08 c -1.28,8.96 -1.92,15.52 -1.92,19.68 0,2.4 0,4.347 0,5.84 0.054,1.493 0.107,2.533 0.16,3.12 0.214,3.253 0.96,4.88 2.241,4.88 2.079,0 4.426,-5.547 7.04,-16.64 0.533,-2.4 0.986,-3.6 1.36,-3.6 0.533,0 0.8,0.4 0.8,1.2 0,1.76 -0.934,5.52 -2.8,11.28 -2.347,6.987 -4.56,10.48 -6.64,10.48 -1.814,0 -3.174,-1.813 -4.08,-5.44 -0.587,-2.507 -0.88,-4.987 -0.88,-7.44 0,-1.227 0.16,-3.76 0.48,-7.6 0.373,-3.893 0.906,-9.12 1.6,-15.68 -0.907,-0.107 -3.6,-0.187 -8.08,-0.24 l -1.84,0.56 c -0.374,-0.427 -0.934,-0.8 -1.68,-1.12 -0.587,-0.267 -0.88,-0.56 -0.88,-0.88 0,-0.373 0.32,-0.56 0.96,-0.56 1.013,0 2.48,-0.027 4.4,-0.08 1.92,-0.107 4.346,-0.213 7.28,-0.32 0.053,-0.587 0.106,-1.36 0.16,-2.32 0.053,-1.013 0.133,-2.213 0.24,-3.6 l -0.4,-1.44 c 0.16,-0.373 0.453,-0.56 0.88,-0.56 0.693,0 1.76,0.48 3.2,1.44 l 0,1.68 c -0.107,0.693 -0.24,1.44 -0.4,2.24 -0.16,0.8 -0.347,1.68 -0.56,2.64 0.426,0 1.253,0.027 2.479,0.08 1.28,0 2.987,0.027 5.12,0.08 1.067,0.053 2.507,0.107 4.32,0.16 1.867,0 4.16,0.053 6.88,0.16 l 0,0.56 0,0 z"
                 style="fill:#288a3d;fill-opacity:1;fill-rule:nonzero;stroke:none"
                 id="path76"
                 inkscape:connector-curvature="0" />
            </g>
            <g
               id="g78"
               transform="translate(495,384)">
              <path
                 d="m 108.461,-33.47 c 0,0.373 -0.346,0.587 -1.04,0.64 -0.426,0.107 -1.306,0.107 -2.64,0 -0.746,-0.053 -1.386,-0.08 -1.92,-0.08 -0.48,0 -0.88,0 -1.2,0 -0.853,0 -1.946,0.053 -3.28,0.16 -1.28,0.053 -2.826,0.187 -4.64,0.4 l -11.2,1.12 c -2.4,9.067 -3.6,16.613 -3.6,22.64 0.267,-0.053 0.667,-0.08 1.2,-0.08 0.534,-0.053 1.174,-0.08 1.92,-0.08 1.014,0 2.24,0.027 3.68,0.08 1.494,0.053 3.2,0.133 5.12,0.24 0.054,0.16 0.08,0.347 0.08,0.56 0,1.173 -1.893,1.813 -5.68,1.92 -4.106,0.053 -6.293,0.213 -6.56,0.48 0,-1.973 -0.08,-0.613 -0.24,4.08 -0.053,2.4 -0.106,4.347 -0.16,5.84 0,1.493 0,2.587 0,3.28 0,5.387 0.32,8.88 0.96,10.48 -0.586,0.16 -1.066,0.24 -1.44,0.24 -1.813,0 -2.72,-1.707 -2.72,-5.12 l 0,-14.08 c 0,-0.32 0,-0.72 0,-1.2 0.054,-0.48 0.08,-0.96 0.08,-1.44 0.054,-0.533 0.08,-1.04 0.08,-1.52 0.054,-0.48 0.08,-0.88 0.08,-1.2 -1.226,-0.053 -2.613,-0.133 -4.16,-0.24 -1.493,-0.107 -3.173,-0.293 -5.04,-0.56 -0.106,-0.053 -0.133,-0.16 -0.08,-0.32 0.107,-0.213 0.16,-0.32 0.16,-0.32 1.12,-0.427 2.774,-0.64 4.96,-0.64 0.587,0 1.147,0 1.68,0 0.587,0 1.094,0.027 1.52,0.08 l 0.88,0 c 0.374,-5.12 1.014,-12.64 1.92,-22.56 -1.973,0.213 -4,0.453 -6.08,0.72 -2.08,0.213 -4.266,0.453 -6.56,0.72 -0.533,0.107 -1.04,0.32 -1.52,0.64 -0.373,0.267 -0.666,0.48 -0.88,0.64 -0.213,0.107 -0.346,0.187 -0.4,0.24 -0.266,0 -0.853,-0.613 -1.76,-1.84 -0.106,-0.533 -0.16,-0.853 -0.16,-0.96 0,-1.013 0.987,-1.627 2.96,-1.84 0.854,-0.053 1.92,-0.133 3.2,-0.24 1.28,-0.107 2.774,-0.213 4.48,-0.32 5.014,-0.533 9.707,-0.933 14.08,-1.2 4.374,-0.32 8.48,-0.533 12.32,-0.64 1.654,0.107 3.12,0.213 4.4,0.32 1.334,0.053 2.48,0.053 3.44,0 2.507,-0.107 3.76,0.213 3.76,0.96 z"
                 style="fill:#288a3d;fill-opacity:1;fill-rule:nonzero;stroke:none"
                 id="path80"
                 inkscape:connector-curvature="0" />
            </g>
            <g
               id="g82"
               transform="translate(495,384)">
              <path
                 d="m 104.486,-4.43 c -0.213,-2.453 -0.88,-3.68 -2,-3.68 -0.906,0 -1.706,1.28 -2.4,3.84 -0.213,0.587 -0.453,1.36 -0.72,2.32 -0.266,0.96 -0.586,2.053 -0.96,3.28 -0.853,3.253 -1.28,7.28 -1.28,12.08 0,0.907 0.187,1.76 0.56,2.56 0.48,1.013 1.094,1.52 1.84,1.52 1.014,-0.587 2.08,-2.64 3.2,-6.16 0.427,-1.387 0.8,-2.667 1.12,-3.84 0.32,-1.227 0.534,-2.32 0.64,-3.28 l 0.96,-7.36 -0.96,-1.28 z m 4.88,22.4 c -1.973,0 -3.6,-1.947 -4.88,-5.84 -1.386,4.96 -3.173,7.44 -5.36,7.44 -3.146,0 -4.64,-3.893 -4.48,-11.68 0.107,-2.08 0.774,-5.547 2,-10.4 1.547,-5.547 2.854,-8.32 3.92,-8.32 2.347,0 3.84,0.613 4.48,1.84 l 1.44,2.88 2.8,0.96 c -1.333,3.893 -2.24,8.667 -2.72,14.32 -0.106,1.227 0,2.507 0.32,3.84 0.427,1.867 1.094,2.8 2,2.8 1.814,0 4.294,-6.56 7.44,-19.68 0.32,-1.227 0.694,-1.84 1.12,-1.84 0.427,0 0.64,0.4 0.64,1.2 0,1.973 -0.986,6 -2.96,12.08 -2.24,6.933 -4.16,10.4 -5.76,10.4 z"
                 style="fill:#288a3d;fill-opacity:1;fill-rule:nonzero;stroke:none"
                 id="path84"
                 inkscape:connector-curvature="0" />
            </g>
            <g
               id="g86"
               transform="translate(495,384)">
              <path
                 d="m 127.316,18.13 c -1.653,0 -3.04,-0.933 -4.16,-2.8 -0.48,-0.8 -0.746,-2.427 -0.8,-4.88 -0.106,-1.813 -0.106,-4.293 0,-7.44 l 0.16,-6.4 c 0,-1.28 -1.306,-2.587 -3.92,-3.92 0,1.333 -0.64,4.187 -1.92,8.56 0,0.053 -0.133,0.347 -0.4,0.88 -0.266,0.48 -0.4,0.747 -0.4,0.8 l -1.04,-0.32 c 0,-0.853 0.32,-2.533 0.96,-5.04 0.694,-2.4 1.04,-4.293 1.04,-5.68 0,-0.533 -0.213,-1.44 -0.64,-2.72 -0.426,-1.28 -0.64,-2.213 -0.64,-2.8 0,-2.667 0.667,-4 2,-4 1.067,0 1.627,0.827 1.68,2.48 0.054,0.32 0.054,0.693 0,1.12 0,0.373 -0.026,0.827 -0.08,1.36 -0.053,0.64 -0.106,1.173 -0.16,1.6 0,0.427 0,0.747 0,0.96 0,0.533 1.12,1.387 3.36,2.56 2.294,1.173 3.44,2.533 3.44,4.08 0,0.907 -0.053,2.027 -0.16,3.36 -0.106,1.28 -0.266,2.8 -0.48,4.56 -0.213,1.707 -0.373,3.227 -0.48,4.56 -0.106,1.28 -0.16,2.373 -0.16,3.28 0,2.507 0.774,3.76 2.32,3.76 0.907,0 2.32,-2.8 4.24,-8.4 1.814,-5.173 2.88,-9.013 3.2,-11.52 0.16,-1.227 0.534,-1.84 1.12,-1.84 0.427,0 0.64,0.4 0.64,1.2 0,1.813 -1.04,5.867 -3.12,12.16 -2.346,6.987 -4.213,10.48 -5.6,10.48 z"
                 style="fill:#288a3d;fill-opacity:1;fill-rule:nonzero;stroke:none"
                 id="path88"
                 inkscape:connector-curvature="0" />
            </g>
            <g
               id="g90"
               transform="translate(495,384)">
              <path
                 d="m 169.365,-4.75 c 0,2.933 -1.6,8.56 -4.8,16.88 -1.547,4 -3.253,6 -5.12,6 -2.347,0 -3.707,-2.24 -4.08,-6.72 0,0 -0.027,-0.72 -0.08,-2.16 -0.053,-1.44 -0.133,-3.6 -0.24,-6.48 -0.747,2.827 -1.413,5.147 -2,6.96 -0.533,1.76 -0.933,3.013 -1.2,3.76 -1.227,2.987 -2.48,4.48 -3.76,4.48 -1.867,0 -2.8,-1.573 -2.8,-4.72 0,-0.853 0.027,-1.867 0.08,-3.04 0.107,-1.227 0.213,-2.667 0.32,-4.32 0.107,-1.653 0.187,-3.067 0.24,-4.24 0.107,-1.227 0.16,-2.267 0.16,-3.12 0,-0.48 -0.187,-0.72 -0.56,-0.72 -0.587,0 -1.28,1.867 -2.08,5.6 -0.587,2.88 -1.093,5.173 -1.52,6.88 -0.373,1.707 -0.64,2.853 -0.8,3.44 -1.227,3.68 -2.587,5.52 -4.08,5.52 -1.653,0 -2.48,-2.587 -2.48,-7.76 0,-0.587 0,-1.28 0,-2.08 0,-0.853 0.027,-1.813 0.08,-2.88 0.053,-1.12 0.08,-2.08 0.08,-2.88 0.053,-0.853 0.08,-1.573 0.08,-2.16 l -0.72,-1.84 c -0.267,-3.68 0.347,-5.52 1.84,-5.52 1.333,0 2,1.04 2,3.12 0,0.693 -0.053,1.52 -0.16,2.48 -0.053,0.96 -0.187,2.08 -0.4,3.36 -0.213,1.28 -0.373,2.4 -0.48,3.36 -0.053,0.96 -0.08,1.787 -0.08,2.48 0,1.227 0.027,2.427 0.08,3.6 0.107,1.12 0.267,2.187 0.48,3.2 1.173,-1.867 1.92,-3.707 2.24,-5.52 0.427,-2.453 0.8,-4.453 1.12,-6 0.32,-1.547 0.56,-2.613 0.72,-3.2 1.333,-4.96 2.8,-7.44 4.4,-7.44 1.6,0 2.4,1.787 2.4,5.36 -0.267,2.293 -0.48,4.347 -0.64,6.16 -0.107,1.813 -0.16,3.387 -0.16,4.72 0,2.56 0.267,3.84 0.8,3.84 1.12,0 2.56,-3.2 4.32,-9.6 1.707,-6.027 2.427,-9.52 2.16,-10.48 0.107,-0.587 0.667,-0.88 1.68,-0.88 0.693,0 1.733,0.427 3.12,1.28 -1.333,6.027 -2,11.227 -2,15.6 0,4.053 0.64,6.08 1.92,6.08 1.44,0 3.013,-2.48 4.72,-7.44 0.267,-0.587 1.307,-4.213 3.12,-10.88 0.107,-0.267 0.213,-0.587 0.32,-0.96 0.107,-0.427 0.213,-0.907 0.32,-1.44 0.16,-0.427 0.427,-0.64 0.8,-0.64 0.427,0 0.64,0.32 0.64,0.96 z"
                 style="fill:#288a3d;fill-opacity:1;fill-rule:nonzero;stroke:none"
                 id="path92"
                 inkscape:connector-curvature="0" />
            </g>
            <g
               id="g94"
               transform="translate(495,384)">
              <path
                 d="m 175.366,11.41 c 0,1.813 -0.373,3.52 -1.12,5.12 -0.96,1.813 -2.32,2.72 -4.08,2.72 -1.6,0 -2.986,-0.667 -4.16,-2 -0.853,-0.853 -1.28,-1.707 -1.28,-2.56 0,-1.013 0.214,-1.573 0.64,-1.68 0.374,0 0.56,0.427 0.56,1.28 0.907,2.027 1.894,3.04 2.96,3.04 2.454,0 3.68,-2.08 3.68,-6.24 0,-1.813 -0.533,-4.613 -1.6,-8.4 -0.586,-1.92 -1.146,-3.6 -1.68,-5.04 -0.213,0.747 -0.506,1.707 -0.88,2.88 -0.32,1.12 -0.693,2.453 -1.12,4 -0.533,1.813 -1.226,2.72 -2.08,2.72 -0.106,0 -0.32,-0.053 -0.64,-0.16 2.187,-8.267 3.28,-14.16 3.28,-17.68 0,-1.44 0.694,-2.16 2.08,-2.16 1.547,0 2.32,0.507 2.32,1.52 0,0.16 -0.053,0.427 -0.16,0.8 -0.053,0.373 -0.133,0.773 -0.24,1.2 -0.106,0.427 -0.213,0.853 -0.32,1.28 -0.053,0.373 -0.08,0.693 -0.08,0.96 0,2.027 0.64,5.147 1.92,9.36 1.334,4.053 2,7.067 2,9.04 z"
                 style="fill:#288a3d;fill-opacity:1;fill-rule:nonzero;stroke:none"
                 id="path96"
                 inkscape:connector-curvature="0" />
            </g>
          </g>
        </g>
      </g>
      <text
         sodipodi:linespacing="125%"
         id="text4566"
         y="447.47333"
         x="393.92972"
         style="font-style:normal;font-weight:normal;font-size:42.66666794px;line-height:125%;font-family:sans-serif;letter-spacing:0px;word-spacing:0px;fill:#288a3d;fill-opacity:1;stroke:none;stroke-width:1px;stroke-linecap:butt;stroke-linejoin:miter;stroke-opacity:1"
         xml:space="preserve"><tspan
           style="font-style:normal;font-variant:normal;font-weight:normal;font-stretch:normal;font-size:37.33333206px;font-family:'URW Gothic L';-inkscape-font-specification:'URW Gothic L';fill:#288a3d;fill-opacity:1"
           y="447.47333"
           x="393.92972"
           id="tspan4568"
           sodipodi:role="line">microgreens</tspan></text>
    </g>
  </g>
</svg>
